<?xml version="1.0" encoding="utf-8"?>
<!-- Generator: Adobe Illustrator 26.4.1, SVG Export Plug-In . SVG Version: 6.00 Build 0)  -->
<svg version="1.1" id="Layer_1" xmlns="http://www.w3.org/2000/svg" xmlns:xlink="http://www.w3.org/1999/xlink" x="0px" y="0px"
	 viewBox="0 0 1280 1280" style="enable-background:new 0 0 1280 1280;" xml:space="preserve">
<style type="text/css">
	.st0{fill:#C9884E;}
</style>
<g transform="translate(0.000000,1280.000000) scale(0.100000,-0.100000)">
	<path class="st0" d="M5965,12020c-133-17-214-39-310-84c-27-13-57-27-65-30c-16-7-90-53-161-100c-106-70-297-255-404-390
		c-16-21-41-53-56-70c-27-34-98-131-114-156c-5-9-28-43-50-76c-55-82-141-221-165-269c-12-22-34-62-50-90c-69-122-241-477-315-650
		c-26-60-53-124-61-142c-8-17-14-34-14-38s-9-26-19-49c-11-23-29-66-40-96s-35-95-54-145c-19-49-37-99-40-110s-18-51-32-90
		c-15-38-30-83-34-100l-7-30l-462-3c-417-2-462-4-462-18s-218-3237-325-4809c-32-462-176-2603-225-3320c-11-159-22-320-25-357l-6-68
		h3880c3196,0,3881,2,3881,13c0,7-18,296-40,643c-22,346-141,2233-265,4194c-123,1961-227,3600-231,3643l-6,77h-472h-473l-35,93
		c-20,50-38,101-41,112c-8,27-40,117-67,185c-12,30-28,75-36,100c-8,24-19,49-24,54c-6,6-10,17-10,26c-1,8-9,33-20,55s-19,44-20,48
		c0,5-6,23-14,40c-8,18-26,61-41,97c-33,80-45,108-80,185c-15,33-38,83-50,110c-12,28-53,113-91,190c-58,119-94,186-204,383
		c-51,89-89,150-150,237c-12,17-30,44-41,60c-10,17-32,46-47,66s-47,62-71,95c-55,74-294,313-351,351c-212,142-297,182-480,224
		c-115,26-376,8-464-32c-19-9-34-8-68,4C6235,12019,6077,12035,5965,12020z M6988,11553c77-47,113-72,172-123
		c106-90,238-237,320-356c88-128,181-274,210-329c9-16,31-57,50-90c77-140,166-323,246-505c47-107,92-208,99-225c8-16,23-55,35-85
		c23-58,50-126,70-175c7-16,18-48,25-70s23-65,34-95c12-30,30-80,41-110c10-30,22-63,25-72c7-17-2-18-103-18c-96,0-110,2-115,18
		c-3,9-24,69-47,132s-46,129-51,147s-16,45-24,60s-15,33-15,40s-6,27-14,45c-30,70-57,138-102,253c-25,65-50,126-54,135
		c-5,8-20,44-35,80c-69,166-207,453-290,605c-15,28-34,63-43,79c-8,15-32,56-53,90c-21,33-46,75-55,91c-56,100-210,314-312,433
		C6945,11573,6943,11581,6988,11553z M5764,11538c-4-7-35-44-69-83c-33-38-67-80-75-92c-8-11-36-48-62-81s-54-73-63-89
		c-15-26-30-48-85-128c-115-163-343-599-475-905c-77-178-98-231-160-390c-31-80-61-156-66-170c-6-13-23-63-39-110s-33-97-39-110
		c-5-14-12-37-15-52l-6-28h-114h-114l30,83c52,143,161,424,184,472c7,17,28,64,45,105c119,281,328,685,453,876
		c158,241,255,364,391,499C5600,11448,5795,11590,5764,11538z M6475,11469c116-88,278-263,375-405c70-102,132-196,148-225
		c110-190,143-252,202-369c81-163,127-261,169-360c18-41,38-88,46-105c7-16,23-55,35-85s31-73,41-96c11-23,19-45,19-49s6-21,14-38
		c7-18,23-59,35-92c13-33,29-76,36-95s19-53,28-75c8-22,24-65,36-95c11-31,21-61,21-68c0-9-284-12-1329-12H5022l13,43
		c23,73,92,254,127,334c10,23,18,48,18,55c0,8,4,18,9,24c5,5,21,41,36,79c15,39,39,95,52,125c14,30,33,73,43,95
		c88,199,220,462,303,605c44,78,134,216,227,354c125,184,337,402,483,496C6381,11541,6380,11542,6475,11469z"/>
</g>
</svg>
