<svg width="95" height="89" viewBox="0 0 95 89" fill="none" xmlns="http://www.w3.org/2000/svg">
<path d="M79.2199 78.9099C72.6431 89.7875 48.6819 93.8277 31.6253 75.7641C30.441 74.5968 29.659 73.6113 29.2046 72.9898C18.2258 62.4533 18.2482 47.9903 19.924 39.8112C22.6203 26.6369 24.0802 15.7517 24.6686 6.69336C27.2383 11.1505 35.8113 22.0584 26.62 37.3704C34.4631 25.4013 51.2963 21.6643 58.536 22.0205C81.7896 23.1803 87.1971 41.0999 87.2865 43.8136C66.1631 18.6246 21.4956 31.6398 25.7114 66.7664C26.6349 68.6918 27.7969 71.0796 29.2046 72.9973C29.9941 73.9752 30.7985 74.9 31.6253 75.7717C34.6866 78.7886 40.4664 82.9956 50.395 85.065C57.7018 86.5811 69.7159 84.2388 79.2199 78.9099Z" fill="black"/>
<path d="M63.0721 12.4087C53.0839 13.7656 37.7032 20.8 32.5713 26.8111C32.7947 18.67 47.5051 9.67987 54.6927 7.67112C61.8878 5.66237 71.4365 1.78131 82.4451 13.2198C77.0823 12.0222 75.5927 10.7032 63.0721 12.4087Z" fill="black"/>
<path d="M58.9533 88.5748C54.1938 88.5748 49.3524 87.559 44.8164 85.5958C39.8111 83.4278 35.2826 80.1987 31.2977 75.9613C30.4114 75.082 29.6144 74.1724 28.9366 73.2476C24.0058 68.51 20.8179 62.5671 19.4624 55.5933C18.1291 48.7409 18.9559 42.7222 19.5666 39.7356C22.0842 27.4329 23.6781 16.3128 24.3038 6.67075L24.3857 5.44276L24.9964 6.50399C25.2273 6.89816 25.4955 7.33781 25.8083 7.85326C27.3948 10.4229 29.7857 14.304 30.7316 19.3221C31.6329 24.1128 31.0072 28.9869 28.8621 33.8533C33.1002 29.1688 38.5226 26.3414 42.6638 24.7192C49.1289 22.1874 55.2589 21.4825 58.5436 21.6416C63.9362 21.9145 68.7999 23.1046 72.9784 25.1892C76.4195 26.9099 79.4137 29.2218 81.8642 32.0796C86.0576 36.9612 87.592 42.1688 87.6441 43.7986L87.6813 44.8825L86.9887 44.0563C76.561 31.6248 58.8937 27.5845 44.0194 34.2324C31.0594 40.0312 24.3484 52.1368 26.0616 66.6301C27.0596 68.7298 28.1545 70.9357 29.4952 72.7549C30.3071 73.7555 31.1487 74.7182 32.0127 75.6278C35.3123 78.8418 41.0326 82.7077 50.4547 84.6786C57.9254 86.2401 69.9395 83.6704 79.0264 78.5765L80.2628 77.8867L79.5255 79.1071C76.3674 84.3299 69.3585 87.9229 61.225 88.4914C60.4802 88.5521 59.7204 88.5748 58.9533 88.5748ZM38.6343 81.2978C45.442 85.9975 53.2627 88.2867 61.1877 87.741C68.3977 87.2407 74.6841 84.3147 78.0284 79.9864C73.7381 82.215 68.9414 83.913 64.0553 84.9287C58.8415 86.0127 53.9629 86.187 50.3207 85.429C45.9783 84.5194 42.068 83.1398 38.6343 81.2978ZM24.9667 7.91391C24.2889 17.3134 22.7173 28.0621 20.2966 39.9023C19.4028 44.2458 17.4737 58.4587 26.866 69.9199C26.3371 68.9345 25.853 67.9263 25.3838 66.9409L25.7189 66.7741H25.7115L25.3763 66.9409C19.8422 55.3432 22.4193 43.6621 26.2999 37.181L26.6202 37.3781L26.2999 37.181C34.5452 23.4457 28.2216 13.1973 25.1827 8.27017C25.1082 8.14131 25.0337 8.02003 24.9667 7.91391ZM26.933 37.5752C23.3802 43.5029 20.9595 53.8954 25.1305 64.5001C24.9369 61.3695 25.138 58.345 25.7189 55.4721C26.4042 52.0913 27.6331 48.9228 29.3612 46.0347C32.6086 40.6149 37.5766 36.2942 43.7289 33.5426C50.7378 30.4044 58.8341 29.5326 66.5282 31.079C74.4085 32.6633 81.3577 36.6277 86.6982 42.5706C86.1693 40.4254 84.6052 36.4155 81.313 32.5875C77.6038 28.2743 70.6396 23.0061 58.5138 22.3997C55.2961 22.2405 49.2854 22.9379 42.932 25.4242C38.0012 27.3571 31.2232 31.0335 26.933 37.5752ZM32.1692 27.8574L32.199 26.7962C32.2511 24.8026 33.1374 22.665 34.8133 20.4364C36.2657 18.511 38.2768 16.5553 40.7943 14.6375C45.092 11.3553 50.6335 8.40662 54.5886 7.30749C55.0876 7.16347 55.5941 7.01944 56.1303 6.86783C59.6757 5.83693 63.6829 4.66958 68.1519 5.10165C73.3285 5.60194 78.0879 8.17163 82.6984 12.9623L83.5773 13.8719L82.3484 13.5915C81.4993 13.402 80.7544 13.2049 80.0394 13.023C76.2929 12.0527 73.5892 11.3553 63.1094 12.7804C58.3053 13.4323 52.1232 15.4107 46.1422 18.2002C40.0644 21.0352 35.223 24.2644 32.8395 27.0539L32.1692 27.8574ZM66.2526 5.76113C62.6551 5.76113 59.3406 6.72381 56.3463 7.59554C55.8101 7.75472 55.3036 7.89874 54.7971 8.04277C51.572 8.93723 46.1347 11.5145 41.2486 15.244C36.5413 18.8445 33.6812 22.5134 33.0704 25.7198C35.7071 23.0591 40.2729 20.118 45.8442 17.518C51.8923 14.6906 58.1488 12.697 63.0275 12.0375C73.6487 10.5897 76.4121 11.3098 80.2405 12.2953C80.5682 12.3786 80.896 12.462 81.246 12.553C75.8237 7.30749 70.8109 5.76113 66.2526 5.76113Z" fill="black"/>
<path d="M64.3828 76.3856C81.3649 67.8731 86.3032 59.1104 86.9139 54.5698C89.5134 57.041 88.0833 67.6305 82.1545 71.6632C79.7412 73.3005 76.4863 74.3693 72.7696 75.1273C70.1552 75.6655 67.3174 76.0521 64.3828 76.3856Z" fill="white"/>
<path d="M82.766 82.1314L82.2297 74.0964L72.7704 75.5139C70.1039 76.0597 67.2586 76.4387 64.4283 76.7646L64.2197 76.0445C71.7425 72.2696 77.5596 68.1308 81.5147 63.7343C85.3953 59.4136 86.3337 56.1086 86.5497 54.5168L86.6466 53.7891L87.1754 54.2894C88.2256 55.2824 88.7023 57.4048 88.4863 60.1034C88.315 62.2865 87.6893 64.5984 86.736 66.6072C85.6336 68.9267 84.129 70.7763 82.3712 71.974C81.2912 72.7092 80.0325 73.3308 78.6545 73.8614L82.5277 73.2853L82.5798 73.6568H82.5872L82.5351 73.2853L94.1545 71.5419L94.2662 72.2923L82.982 73.9827L83.5257 82.0784L82.766 82.1314ZM87.1307 55.4795C86.7062 57.3442 85.4921 60.4369 82.0659 64.2497C78.4162 68.3127 73.2173 72.1483 66.5883 75.6807L72.6661 74.7711C76.3009 74.0282 79.5707 72.9746 81.9541 71.3524C85.5219 68.9267 87.4361 63.9238 87.7415 60.0503C87.8904 58.1022 87.667 56.4725 87.1307 55.4795Z" fill="white"/>
<path d="M18.5018 28.1604C18.7104 21.8536 17.6527 11.772 20.6842 1.76611C6.443 13.9399 15.8279 23.0362 18.5018 28.1604Z" fill="white"/>
<path d="M0.74483 30.1768L0 30.154L0.998072 0L13.3101 19.3295C12.9452 18.1925 12.6919 16.9872 12.6323 15.7138C12.5206 13.4624 13.0271 11.2111 14.1443 9.01286C15.418 6.50381 17.5408 3.96444 20.4456 1.48572L21.4139 0.659478L21.0415 1.88747C18.725 9.53589 18.8144 17.1388 18.8814 23.2561C18.9038 25.0374 18.9187 26.7202 18.874 28.1832L18.8293 29.6007L18.1813 28.3651L1.66842 2.44082L0.74483 30.1768ZM19.9689 2.89564C15.3212 7.14055 13.1611 11.3248 13.3771 15.6683C13.5708 19.5872 15.6787 22.8998 17.3694 25.5604C17.645 25.9849 17.9057 26.4018 18.1515 26.8036C18.159 25.6969 18.1441 24.4992 18.1366 23.2561C18.0696 17.4193 17.9876 10.2257 19.9689 2.89564Z" fill="white"/>
</svg>
