<svg width="1350" height="1611" viewBox="0 0 1350 1611" fill="none" xmlns="http://www.w3.org/2000/svg">
<path d="M1083.6 1041C995.3 1184.5 673.6 1237.8 444.6 999.5C428.7 984.1 418.3 971.1 412.2 962.9C264.8 823.9 265.1 633.1 287.6 525.2C323.8 351.4 343.4 207.8 351.3 88.3C385.7 147 500.8 290.8 377.4 492.9C482.7 335 708.7 285.7 805.9 290.4C1118.1 305.7 1190.7 542.1 1191.9 577.9C908.3 245.6 308.6 417.3 365.2 880.7C377.6 906.1 393.2 937.6 412.1 962.9C422.7 975.8 433.5 988 444.5 999.5C485.6 1039.3 563.3 1094.8 696.5 1122.1C794.7 1142.2 956 1111.3 1083.6 1041Z" fill="black"/>
<path d="M866.8 163.7C732.7 181.6 526.2 274.4 457.4 353.7C460.4 246.3 657.9 127.7 754.4 101.2C850.9 74.7001 979.2 23.5001 1126.9 174.4C1054.9 158.6 1034.9 141.2 866.8 163.7Z" fill="black"/>
<path d="M811.5 1168.5C747.6 1168.5 682.6 1155.1 621.7 1129.2C554.5 1100.6 493.7 1058 440.2 1002.1C428.3 990.5 417.6 978.5 408.4 966.3C342.2 903.8 299.4 825.4 281.2 733.4C263.3 643 274.4 563.6 282.6 524.2C316.4 361.9 337.8 215.2 346.2 88L347.3 71.8L355.5 85.8C358.6 91 362.2 96.9 366.5 103.6C387.8 137.5 419.9 188.7 432.6 254.9C444.7 318.1 436.3 382.4 407.5 446.6C464.4 384.8 537.2 347.5 592.8 326.1C679.6 292.7 761.9 283.4 806 285.5C878.5 289.1 943.7 304.8 999.8 332.3C1046 355 1086.2 385.5 1119.1 423.2C1175.4 487.6 1196 556.3 1196.7 577.8L1197.2 592.1L1187.9 581.2C1047.9 417.2 810.7 363.9 611 451.6C437 528.1 346.9 687.8 369.9 879C383.3 906.7 398 935.8 416 959.8C426.9 973.1 438.2 985.7 449.9 997.7C494.2 1040.1 571 1091.1 697.5 1117.1C797.8 1137.7 959.1 1103.8 1081.1 1036.6L1097.7 1027.5L1087.8 1043.6C1045.4 1112.5 951.3 1159.9 842.1 1167.4C832 1168.2 821.8 1168.5 811.5 1168.5ZM538.7 1072.5C630.1 1134.5 735.1 1164.7 841.5 1157.5C938.3 1150.9 1022.7 1112.3 1067.6 1055.2C1010 1084.6 945.6 1107 880 1120.4C810 1134.7 744.5 1137 695.6 1127C637.3 1115 584.8 1096.8 538.7 1072.5ZM355.2 104.4C346.1 228.4 325 370.2 292.5 526.4C280.5 583.7 254.6 771.2 380.7 922.4C373.6 909.4 367.1 896.1 360.8 883.1L365.3 880.9H365.2L360.7 883.1C286.4 730.1 321 576 373.1 490.5L377.4 493.1L373.1 490.5C483.8 309.3 398.9 174.1 358.1 109.1C357.1 107.4 356.1 105.9 355.2 104.4ZM381.6 495.7C333.9 573.9 301.4 711 357.4 850.9C354.8 809.6 357.5 769.7 365.3 731.8C374.5 687.2 391 645.4 414.2 607.3C457.8 535.8 524.5 478.8 607.1 442.5C701.2 401.1 809.9 389.6 913.2 410C1019 430.9 1112.3 483.2 1184 561.6C1176.9 533.3 1155.9 480.4 1111.7 429.9C1061.9 373 968.4 303.5 805.6 295.5C762.4 293.4 681.7 302.6 596.4 335.4C530.2 360.9 439.2 409.4 381.6 495.7ZM451.9 367.5L452.3 353.5C453 327.2 464.9 299 487.4 269.6C506.9 244.2 533.9 218.4 567.7 193.1C625.4 149.8 699.8 110.9 752.9 96.4001C759.6 94.6001 766.4 92.6 773.6 90.6C821.1 77 875 61.6 935 67.3C1004.5 73.9 1068.4 107.8 1130.4 171L1142.2 183L1125.7 179.3C1114.3 176.8 1104.3 174.2 1094.7 171.8C1044.4 159 1008.1 149.8 867.4 168.6C803 177.2 719.9 203.3 639.7 240.1C558.1 277.5 493.1 320.1 461.1 356.9L451.9 367.5ZM909.4 76C861.1 76 816.6 88.7 776.4 100.2C769.2 102.3 762.4 104.2 755.6 106.1C712.3 117.9 639.3 151.9 573.7 201.1C510.5 248.6 472.1 297 463.9 339.3C499.2 304.2 560.6 265.4 635.4 231.1C716.5 193.8 800.6 167.5 866 158.8C1008.6 139.7 1045.7 149.2 1097.1 162.2C1101.5 163.3 1105.9 164.4 1110.6 165.6C1037.9 96.4 970.6 76 909.4 76Z" fill="black"/>
<path d="M884.4 1007.7C1112.4 895.4 1178.7 779.8 1186.9 719.9C1221.8 752.5 1202.6 892.2 1123 945.4C1090.6 967 1046.9 981.1 997 991.1C961.9 998.2 923.8 1003.3 884.4 1007.7Z" fill="white"/>
<path d="M1131.2 1083.5L1124 977.5L997 996.2C961.2 1003.4 923 1008.4 885 1012.7L882.2 1003.2C983.2 953.4 1061.3 898.8 1114.4 840.8C1166.5 783.8 1179.1 740.2 1182 719.2L1183.3 709.6L1190.4 716.2C1204.5 729.3 1210.9 757.3 1208 792.9C1205.7 821.7 1197.3 852.2 1184.5 878.7C1169.7 909.3 1149.5 933.7 1125.9 949.5C1111.4 959.2 1094.5 967.4 1076 974.4L1128 966.8L1284 943.8L1285.5 953.7L1134.1 976L1141.4 1082.8L1131.2 1083.5ZM1189.8 731.9C1184.1 756.5 1167.8 797.3 1121.8 847.6C1072.8 901.2 1003 951.8 914 998.4L995.6 986.4C1044.4 976.6 1088.3 962.7 1120.3 941.3C1168.2 909.3 1193.9 843.3 1198 792.2C1200 766.5 1197 745 1189.8 731.9Z" fill="white"/>
<path d="M268.4 371.5C271.2 288.3 257 155.3 297.7 23.3C106.5 183.9 232.5 303.9 268.4 371.5Z" fill="white"/>
<path d="M30 398.1L20 397.8L33.3999 0L198.7 255C193.8 240 190.4 224.1 189.6 207.3C188.1 177.6 194.9 147.9 209.9 118.9C227 85.8 255.5 52.3 294.5 19.6L307.5 8.70001L302.5 24.9C271.4 125.8 272.6 226.2 273.5 306.8C273.8 330.3 274 352.5 273.4 371.8L272.8 390.5L264.1 374.2L42.3999 32.2L30 398.1ZM288.1 38.2C225.7 94.2 196.7 149.4 199.6 206.7C202.2 258.4 230.5 302.1 253.2 337.2C256.9 342.8 260.4 348.3 263.7 353.6C263.8 339 263.6 323.2 263.5 306.8C262.6 229.8 261.5 134.9 288.1 38.2Z" fill="white"/>
<path d="M181.1 1610.6L28.2 1455.7L28.8 1604H0.600098V1389.4H2L154.6 1546.6L154 1395.7H181.9V1610.5H181.1V1610.6ZM415.3 1558.2V1557.9L531.1 1412.2H531.4V1536.6H556.2V1558.2H531.4V1604H503.5V1558.2H415.3ZM503.4 1536.6V1477.6L457.6 1536.6H503.4ZM852.3 1395.8V1604H824.1V1512.7H715.2V1604H687.3V1395.8H715.2V1485.9H824.1V1395.8H852.3ZM891.6 1604L982.6 1387.1H984.3L1075.3 1604H1043.1L1021.5 1549.3H941.4L919.2 1604H891.6ZM951.2 1525.1H1012L982.3 1449.3L951.2 1525.1ZM1114.2 1395.8H1142.1V1604H1114.2V1395.8ZM1257.6 1395.8C1271.4 1395.8 1283.9 1398.3 1295 1403.3C1306.1 1408.1 1315 1415.4 1321.5 1425.2C1328 1434.8 1331.3 1446.5 1331.3 1460.3C1331.3 1472.2 1328.6 1483.7 1323.2 1494.9C1318 1506 1309.2 1514.5 1296.7 1520.2L1349.1 1604H1316.6L1267.4 1527.1C1265.3 1527.3 1263.1 1527.4 1260.8 1527.4H1230V1604H1202V1395.8H1257.6ZM1260.2 1500.3C1271.3 1500.3 1279.9 1498.3 1285.8 1494.3C1291.9 1490.1 1296.3 1485 1298.8 1479C1301.3 1472.8 1302.5 1467 1302.5 1461.4C1302.5 1455.8 1301.2 1450.1 1298.5 1444.1C1295.8 1438.1 1291.5 1433.1 1285.5 1428.8C1279.7 1424.6 1272 1422.5 1262.2 1422.5H1230V1500.3H1260.2Z" fill="black"/>
<path d="M394.7 1588.4C391.3 1590.7 386.5 1593.3 380.6 1596.2C374.6 1599.1 367.6 1601.6 359.6 1603.7C351.7 1605.6 343.1 1606.5 333.7 1606.3C317.4 1606.1 302.8 1603.2 289.9 1597.7C277 1592.1 266 1584.5 256.8 1574.9C247.8 1565.1 240.9 1554 236.1 1541.5C231.3 1529 228.9 1515.7 228.9 1501.5C228.9 1486 231.4 1471.7 236.4 1458.6C241.6 1445.4 248.8 1433.9 258 1424.3C267.2 1414.5 278.1 1406.9 290.6 1401.5C303.3 1396.1 317.1 1393.4 332.1 1393.4C344.6 1393.4 355.9 1395.1 366.1 1398.6C376.3 1401.9 385 1405.7 392.3 1410.1L381.1 1436.3C375.3 1432.5 368.3 1428.8 360.1 1425.4C351.8 1421.9 342.8 1420.2 333 1420.2C323.2 1420.2 313.2 1422.3 304.2 1426.5C295.2 1430.5 287.2 1436.2 280.3 1443.5C273.4 1450.6 267.9 1459.1 263.9 1468.9C260.1 1478.5 258.1 1488.9 258.1 1500C258.1 1515 261.2 1528.5 267.3 1540.6C273.6 1552.5 282.5 1561.9 293.8 1568.8C305.3 1575.7 318.8 1579.2 334.1 1579.2C344.9 1579.2 354.3 1577.7 362.3 1574.6C370.6 1571.3 377.4 1567.6 382.7 1563.4L394.7 1588.4Z" fill="white"/>
</svg>
