<svg width="1266" height="1169" viewBox="0 0 1266 1169" fill="none" xmlns="http://www.w3.org/2000/svg">
<path d="M1064 1041C975.7 1184.6 654 1237.8 425 999.5C409.1 984.1 398.6 971.1 392.5 962.9C245.1 823.9 245.4 633.1 267.9 525.2C304.1 351.3 323.7 207.8 331.6 88.3C366 147 481.1 290.8 357.7 492.9C463 335 689 285.7 786.2 290.4C1098.4 305.7 1171 542.1 1172.2 577.9C888.6 245.6 288.9 417.3 345.5 880.7C357.9 906.1 373.5 937.6 392.4 962.9C403 975.8 413.8 988 424.9 999.5C466 1039.3 543.6 1094.8 676.9 1122.1C775.1 1142.2 936.4 1111.3 1064 1041Z" fill="#C9884E"/>
<path d="M847.2 163.7C713.1 181.6 506.6 274.4 437.7 353.7C440.7 246.3 638.2 127.7 734.7 101.2C831.3 74.7 959.5 23.4999 1107.3 174.4C1035.3 158.6 1015.3 141.2 847.2 163.7Z" fill="#C9884E"/>
<path d="M791.9 1168.5C728 1168.5 663 1155.1 602.1 1129.2C534.9 1100.7 474.1 1058 420.7 1002.1C408.8 990.5 398.1 978.5 388.9 966.3C322.7 903.8 279.9 825.4 261.7 733.4C243.8 643 254.9 563.6 263.1 524.2C296.9 361.8 318.3 215 326.7 88.0001L327.8 71.8001L336 85.8001C339.1 91.0001 342.7 96.9002 347 103.6C368.3 137.5 400.4 188.7 413.1 254.9C425.2 318.1 416.8 382.4 388 446.6C444.9 384.8 517.7 347.5 573.3 326.1C660.1 292.7 742.4 283.4 786.5 285.5C859 289.1 924.2 304.8 980.3 332.3C1026.5 355 1066.7 385.5 1099.6 423.2C1155.9 487.6 1176.5 556.3 1177.2 577.8L1177.7 592.1L1168.4 581.2C1028.4 417.2 791.2 363.9 591.5 451.6C417.5 528.1 327.4 687.8 350.4 879C363.8 906.7 378.5 935.8 396.5 959.8C407.4 973.1 418.7 985.7 430.4 997.7C474.7 1040.1 551.5 1091.1 678 1117.2C778.4 1137.7 939.7 1103.8 1061.6 1036.6L1078.2 1027.5L1068.3 1043.6C1025.9 1112.5 931.8 1159.9 822.6 1167.4C812.4 1168.2 802.2 1168.5 791.9 1168.5ZM519.2 1072.7C610.6 1134.7 715.5 1164.8 821.9 1157.6C918.7 1151 1003.1 1112.4 1048 1055.3C990.4 1084.7 926 1107.1 860.4 1120.5C790.4 1134.8 724.9 1137.2 676 1127.2C617.8 1115.1 565.3 1096.9 519.2 1072.7ZM335.6 104.4C326.5 228.3 305.4 370.1 272.9 526.4C260.9 583.7 235 771.2 361.1 922.4C354 909.4 347.5 896.1 341.2 883.1L345.7 880.9H345.6L341.1 883.1C266.8 730.1 301.4 576 353.5 490.5L357.8 493.1L353.5 490.5C464.2 309.3 379.3 174.1 338.5 109.1C337.5 107.4 336.5 105.9 335.6 104.4ZM362 495.7C314.3 573.9 281.8 711 337.8 850.9C335.2 809.6 337.9 769.7 345.7 731.8C354.9 687.2 371.4 645.4 394.6 607.3C438.2 535.8 504.9 478.8 587.5 442.5C681.6 401.1 790.3 389.6 893.6 410C999.4 430.9 1092.7 483.2 1164.4 561.6C1157.3 533.3 1136.3 480.4 1092.1 429.9C1042.3 373 948.8 303.5 786 295.5C742.8 293.4 662.1 302.6 576.8 335.4C510.6 360.9 419.6 409.4 362 495.7ZM432.3 367.5L432.7 353.5C433.4 327.2 445.3 299 467.8 269.6C487.3 244.2 514.3 218.4 548.1 193.1C605.8 149.8 680.3 110.9 733.3 96.4C740 94.5 746.8 92.6002 754 90.6002C801.6 77.0002 855.4 61.6001 915.4 67.3001C984.9 73.9001 1048.8 107.8 1110.7 171L1122.5 183L1106.1 179.4C1094.6 176.9 1084.5 174.3 1074.8 171.8C1024.5 159.1 988.2 149.8 847.8 168.6C783.3 177.2 700.3 203.3 620 240.1C538.4 277.5 473.4 320.1 441.4 356.9L432.3 367.5ZM889.9 76.0001C841.6 76.0001 797.1 88.7 756.9 100.2C749.7 102.3 742.9 104.2 736.1 106.1C692.8 117.9 619.8 151.9 554.2 201.1C491 248.6 452.6 297 444.4 339.3C479.8 304.2 541.1 265.4 615.9 231.1C697.1 193.8 781.1 167.5 846.6 158.8C988.9 139.7 1026.1 149.2 1077.4 162.2C1081.9 163.3 1086.4 164.5 1091.2 165.7C1018.4 96.5 951.1 76.0001 889.9 76.0001Z" fill="#C9884E"/>
<path d="M864.8 1007.7C1092.8 895.4 1159.1 779.8 1167.3 719.9C1202.2 752.5 1183 892.2 1103.4 945.4C1071 967.1 1027.3 981.1 977.4 991.1C942.3 998.2 904.2 1003.3 864.8 1007.7Z" fill="white"/>
<path d="M1111.6 1083.5L1104.4 977.5L977.4 996.2C941.6 1003.4 903.4 1008.4 865.4 1012.7L862.6 1003.2C963.6 953.4 1041.7 898.8 1094.8 840.8C1146.9 783.8 1159.5 740.2 1162.4 719.2L1163.7 709.6L1170.8 716.2C1184.9 729.3 1191.3 757.3 1188.4 792.9C1186.1 821.7 1177.7 852.2 1164.9 878.7C1150.1 909.3 1129.9 933.7 1106.3 949.5C1091.8 959.2 1074.9 967.4 1056.4 974.4L1108.4 966.8L1109.1 971.7H1109.2L1108.5 966.8L1264.5 943.8L1266 953.7L1114.5 976L1121.8 1082.8L1111.6 1083.5ZM1170.2 731.9C1164.5 756.5 1148.2 797.3 1102.2 847.6C1053.2 901.2 983.4 951.8 894.4 998.4L976 986.4C1024.8 976.6 1068.7 962.7 1100.7 941.3C1148.6 909.3 1174.3 843.3 1178.4 792.2C1180.4 766.5 1177.4 745 1170.2 731.9Z" fill="white"/>
<path d="M248.8 371.5C251.6 288.3 237.4 155.3 278.1 23.3C86.8999 183.9 212.9 303.9 248.8 371.5Z" fill="white"/>
<path d="M10.3999 398.1L0.399902 397.8L13.7999 0L179.1 255C174.2 240 170.8 224.1 170 207.3C168.5 177.6 175.3 147.9 190.3 118.9C207.4 85.7999 235.9 52.3001 274.9 19.6001L287.9 8.69995L282.9 24.8999C251.8 125.8 253 226.1 253.9 306.8C254.2 330.3 254.4 352.5 253.8 371.8L253.2 390.5L244.5 374.2L22.7999 32.2L10.3999 398.1ZM268.5 38.2C206.1 94.2 177.1 149.4 180 206.7C182.6 258.4 210.9 302.1 233.6 337.2C237.3 342.8 240.8 348.3 244.1 353.6C244.2 339 244 323.2 243.9 306.8C243 229.8 241.9 134.9 268.5 38.2Z" fill="white"/>
</svg>
