<svg width="35" height="35" viewBox="0 0 35 35" fill="none" xmlns="http://www.w3.org/2000/svg">
<path d="M18.453 2.29944C18.1576 1.37 16.8424 1.37001 16.547 2.29944L13.8446 10.8014C13.4487 12.0467 12.2923 12.8926 10.9855 12.8926H2.14853C1.18513 12.8926 0.77887 14.121 1.55229 14.6954L8.77667 20.0609C9.8051 20.8247 10.2351 22.1572 9.84701 23.3781L7.10548 32.0031C6.81141 32.9283 7.87537 33.6877 8.65473 33.1089L15.7113 27.868C16.7733 27.0793 18.2267 27.0793 19.2887 27.868L26.3453 33.1089C27.1246 33.6877 28.1886 32.9283 27.8945 32.0031L25.153 23.3781C24.7649 22.1572 25.1949 20.8247 26.2233 20.0609L33.4477 14.6954C34.2211 14.121 33.8149 12.8926 32.8515 12.8926H24.0145C22.7077 12.8926 21.5513 12.0467 21.1554 10.8014L18.453 2.29944Z" fill="#C9884E" stroke="#C9884E" stroke-width="2"/>
</svg>
