<svg width="36" height="35" viewBox="0 0 36 35" fill="none" xmlns="http://www.w3.org/2000/svg">
<path d="M18.9511 2.16312C18.6517 1.24181 17.3483 1.24181 17.0489 2.16312L14.2363 10.8197C13.8346 12.0557 12.6828 12.8926 11.3831 12.8926H2.28107C1.31235 12.8926 0.909569 14.1322 1.69328 14.7016L9.05697 20.0517C10.1084 20.8156 10.5484 22.1697 10.1468 23.4058L7.33411 32.0623C7.03476 32.9836 8.08923 33.7497 8.87295 33.1803L16.2366 27.8303C17.2881 27.0664 18.7119 27.0664 19.7634 27.8303L27.127 33.1803C27.9108 33.7497 28.9652 32.9836 28.6659 32.0623L25.8532 23.4058C25.4516 22.1697 25.8916 20.8156 26.943 20.0517L34.3067 14.7016C35.0904 14.1322 34.6877 12.8926 33.7189 12.8926H24.6169C23.3172 12.8926 22.1654 12.0557 21.7637 10.8197L18.9511 2.16312Z" fill="url(#paint0_linear_304_716)" stroke="#C9884E" stroke-width="2"/>
<defs>
<linearGradient id="paint0_linear_304_716" x1="0.207547" y1="24.1111" x2="30.1509" y2="24.1111" gradientUnits="userSpaceOnUse">
<stop offset="0.588542" stop-color="#C9884E"/>
<stop offset="0.588642" stop-opacity="0"/>
</linearGradient>
</defs>
</svg>
